<svg width="56" height="56" viewBox="0 0 56 56" fill="none" xmlns="http://www.w3.org/2000/svg">
<path d="M28 56C43.5 56 56 43.5 56 28C56 12.5 43.5 0 28 0C12.5 0 0 12.5 0 28C0 43.5 12.5 56 28 56Z" fill="#EFF0F2"/>
<path fill-rule="evenodd" clip-rule="evenodd" d="M28 17C28.5523 17 29 16.5523 29 16C29 15.4477 28.5523 15 28 15C27.4477 15 27 15.4477 27 16C27 16.5523 27.4477 17 28 17ZM28 19C29.6569 19 31 17.6569 31 16C31 14.3431 29.6569 13 28 13C26.3431 13 25 14.3431 25 16C25 17.6569 26.3431 19 28 19ZM35 18C35 18.5523 34.5523 19 34 19H33C32.4477 19 32 18.5523 32 18C32 17.4477 32.4477 17 33 17L34 17C34.5523 17 35 17.4477 35 18ZM20 20C19.4477 20 19 20.4477 19 21C19 22.2842 19.4867 23.3863 20.632 24.099C21.6487 24.7318 23.077 24.9855 24.8439 24.9994C24.9498 25.5761 25 26.2423 25 27H27C27 25.1978 26.7514 23.4356 25.817 22.1116C25.7904 22.0739 25.7634 22.0367 25.7359 22H26C26.5523 22 27 21.5523 27 21C27 20.4477 26.5523 20 26 20L21 20H20ZM15.002 20C15.5542 20 16.002 20.4477 16.002 21L16.0023 21.2086C16.0515 23.4672 16.9012 24.5684 17.775 25.1925C18.5385 25.7379 19.3244 25.9548 20.0346 26.1508C20.2715 26.2162 20.4999 26.2792 20.7162 26.3513L21.4 26.5792V27.3C21.4 27.6083 21.6416 28.0264 22.4625 28.4258C23.0154 28.6948 23.682 28.8723 24.2963 28.9519C24.6485 28.3807 25.2798 28 26 28H28H30C30.73 28 31.3687 28.3911 31.7179 28.9752C32.6306 28.9099 33.3426 28.719 33.828 28.4502C34.3868 28.1407 34.6 27.7682 34.6 27.3V26.5792L35.2838 26.3513C35.5001 26.2792 35.7285 26.2162 35.9654 26.1508C36.6756 25.9548 37.4615 25.7379 38.225 25.1925C39.1253 24.5495 40 23.4 40 21C40 20.4477 40.4477 20 41 20C41.5523 20 42 20.4477 42 21C42 26.0293 41.503 29.958 40.2869 32.6604C39.6712 34.0285 38.8516 35.1274 37.7775 35.8811C36.6955 36.6404 35.4254 37 34 37V35C35.0746 35 35.9295 34.7346 36.6287 34.2439C37.3359 33.7476 37.9538 32.9715 38.4631 31.8396C39.0604 30.5122 39.4806 28.7596 39.7288 26.5576C39.6173 26.6498 39.5034 26.7372 39.3875 26.82C38.3949 27.529 37.24 27.8818 36.5085 28.0829C36.2801 29.0207 35.642 29.7318 34.797 30.1998C34.0189 30.6307 33.0532 30.8702 32 30.9593V35.382C32 35.7607 31.786 36.107 31.4472 36.2764L28.8946 37.5527C28.9621 37.6873 29 37.8392 29 38V44C29 44.5523 28.5523 45 28 45C27.4477 45 27 44.5523 27 44V38C27 37.8392 27.0379 37.6873 27.1054 37.5527L24.5528 36.2764C24.214 36.107 24 35.7607 24 35.382V30.93C23.1971 30.8222 22.3372 30.5889 21.5875 30.2242C20.7537 29.8186 19.835 29.1299 19.5164 28.0897C18.7863 27.8898 17.6164 27.5371 16.6125 26.82C16.4973 26.7377 16.384 26.6508 16.2731 26.5592C16.5212 28.7605 16.941 30.5126 17.538 31.8398C18.0471 32.9716 18.6647 33.7478 19.3717 34.244C20.0707 34.7346 20.9254 35 22 35V37C20.5746 37 19.3045 36.6404 18.2227 35.881C17.1488 35.1272 16.3294 34.0284 15.714 32.6602C14.5171 29.9994 14.0174 26.1495 14.0023 21.2309C14.0008 21.1547 14 21.0778 14 21C14 20.4477 14.4477 20 15 20L15.001 20L15.002 20ZM21.2564 22.0039C22.6191 22.0462 23.4259 22.4283 23.9361 22.9637C22.832 22.8824 22.123 22.6713 21.6887 22.401C21.5094 22.2894 21.3654 22.1611 21.2564 22.0039ZM35 20H36C36.5523 20 37 20.4477 37 21C37 22.2842 36.5133 23.3863 35.368 24.099C34.3513 24.7318 32.923 24.9855 31.1561 24.9994C31.0502 25.5761 31 26.2423 31 27H29C29 25.1978 29.2486 23.4356 30.183 22.1116C30.2096 22.0739 30.2366 22.0367 30.2641 22H30C29.4477 22 29 21.5523 29 21C29 20.4477 29.4477 20 30 20H35ZM32.0639 22.9637C32.5741 22.4283 33.3809 22.0462 34.7436 22.0039C34.6346 22.1611 34.4906 22.2894 34.3113 22.401C33.877 22.6713 33.168 22.8824 32.0639 22.9637ZM22.2929 41.7071C21.9024 41.3166 21.9024 40.6834 22.2929 40.2929L23.7929 38.7929C24.1834 38.4024 24.8166 38.4024 25.2071 38.7929C25.5976 39.1834 25.5976 39.8166 25.2071 40.2071L23.7071 41.7071C23.3166 42.0976 22.6834 42.0976 22.2929 41.7071ZM33.7071 40.2929C34.0976 40.6834 34.0976 41.3166 33.7071 41.7071C33.3166 42.0976 32.6834 42.0976 32.2929 41.7071L30.7929 40.2071C30.4024 39.8166 30.4024 39.1834 30.7929 38.7929C31.1834 38.4024 31.8166 38.4024 32.2071 38.7929L33.7071 40.2929ZM23 19C23.5523 19 24 18.5523 24 18C24 17.4477 23.5523 17 23 17L22 17C21.4477 17 21 17.4477 21 18C21 18.5523 21.4477 19 22 19H23ZM26 34.7639V30H28H30V34.7639L28 35.7639L26 34.7639Z" fill="#0065DD"/>
</svg>
