<svg width="56" height="56" viewBox="0 0 56 56" fill="none" xmlns="http://www.w3.org/2000/svg">
<path d="M28 56C43.5 56 56 43.5 56 28C56 12.5 43.5 0 28 0C12.5 0 0 12.5 0 28C0 43.5 12.5 56 28 56Z" fill="#EFF0F2"/>
<path fill-rule="evenodd" clip-rule="evenodd" d="M27 16V18H37C37.5523 18 38 18.4477 38 19V38H39C39.5523 38 40 38.4477 40 39C40 39.5523 39.5523 40 39 40H37H22H18H17C16.4477 40 16 39.5523 16 39C16 38.4477 16.4477 38 17 38V25C17 24.4477 17.4477 24 18 24H21V19C21 18.4477 21.4477 18 22 18H25V16H27ZM23 25V20H36V38H27V36H25V38H23V25ZM21 38H19V26H21V38ZM26 30C25.4477 30 25 30.4477 25 31C25 31.5523 25.4477 32 26 32H30C30.5523 32 31 31.5523 31 31C31 30.4477 30.5523 30 30 30L26 30ZM25 27C25 26.4477 25.4477 26 26 26L33 26C33.5523 26 34 26.4477 34 27C34 27.5523 33.5523 28 33 28L26 28C25.4477 28 25 27.5523 25 27ZM26 22C25.4477 22 25 22.4477 25 23C25 23.5523 25.4477 24 26 24L33 24C33.5523 24 34 23.5523 34 23C34 22.4477 33.5523 22 33 22L26 22Z" fill="#0065DD"/>
</svg>
