<svg width="56" height="56" viewBox="0 0 56 56" fill="none" xmlns="http://www.w3.org/2000/svg">
<path d="M28 56C43.5 56 56 43.5 56 28C56 12.5 43.5 0 28 0C12.5 0 0 12.5 0 28C0 43.5 12.5 56 28 56Z" fill="#EFF0F2"/>
<path fill-rule="evenodd" clip-rule="evenodd" d="M38.8092 19.0509C40.0184 18.6112 41.3733 18.9915 42.177 19.9962L44.2697 22.612C45.154 23.7173 45.1453 25.2903 44.249 26.3858L40.3815 31.1128L40.5388 31.2527C41.5672 32.1668 41.6996 33.7261 40.8401 34.8006C40.5633 35.1465 40.2169 35.4018 39.8378 35.5634C40.1264 36.6555 39.7295 37.8822 38.7013 38.5677C37.9261 39.0845 36.9656 39.1639 36.1393 38.8308C36.0579 38.9953 35.9577 39.1535 35.8386 39.3024C35.0472 40.2916 33.6884 40.5434 32.6164 39.988C32.4126 40.4205 32.0912 40.8077 31.6556 41.0981C30.6316 41.7808 29.2784 41.6991 28.344 40.8982L26.2827 39.1314L25.7068 39.7074C24.764 40.6502 23.2354 40.6502 22.2926 39.7074C22.1466 39.5614 22.0233 39.4015 21.9225 39.2318C21.0477 39.5932 20.0036 39.4184 19.2926 38.7074C19.1466 38.5614 19.0233 38.4015 18.9225 38.2318C18.0477 38.5932 17.0036 38.4184 16.2926 37.7074C15.5816 36.9964 15.4067 35.9522 15.7681 35.0774C15.5985 34.9766 15.4385 34.8533 15.2926 34.7074C14.3497 33.7646 14.3497 32.236 15.2926 31.2932L16.0854 30.5003L12.4325 26.8473C11.7059 26.1207 11.6481 24.9618 12.2988 24.1666L15.8033 19.8833C16.3148 19.2581 17.1522 19.002 17.9259 19.2341L21.9394 20.4381L24.7563 19.2309C25.2065 19.0379 25.7119 19.0169 26.1766 19.1718L28.7563 20.0317L29.0791 19.7969C29.8627 19.227 30.8732 19.0707 31.7923 19.3771L34.6548 20.3312C34.8689 20.4026 35.1008 20.3994 35.3128 20.3223L38.8092 19.0509ZM26.7685 21.4773L25.5441 21.0692L22.7272 22.2764C22.2961 22.4612 21.8139 22.4886 21.3647 22.3538L17.3512 21.1498L13.8467 25.4331L17.5121 29.0985C18.4594 28.3556 19.8341 28.4205 20.7068 29.2932C20.8527 29.4391 20.976 29.5991 21.0768 29.7687C21.9516 29.4073 22.9958 29.5822 23.7068 30.2932C24.4178 31.0042 24.5926 32.0483 24.2312 32.9231C24.4009 33.0239 24.5608 33.1472 24.7068 33.2932C25.0803 33.6666 25.3058 34.1321 25.3834 34.6166C25.8679 34.6941 26.3333 34.9197 26.7068 35.2932C27.2888 35.8752 27.5115 36.6805 27.3749 37.4334L29.6455 39.3797C29.8997 39.5975 30.2677 39.6197 30.5462 39.434C30.8789 39.2123 30.9666 38.783 30.789 38.4561L28.3307 36.2436L28.9997 35.5003L29.6582 34.7477L31.9408 36.745C32.0767 36.8639 32.1976 36.9924 32.3037 37.1285L33.4097 38.1239C33.6654 38.354 34.062 38.3216 34.2768 38.053C34.4217 37.872 34.4448 37.6313 34.3545 37.4321L30.3239 33.7374L30.9997 33.0003L31.6686 32.257L35.5478 35.7483C35.6804 35.8676 35.7979 35.9976 35.9002 36.1359L36.6593 36.8317C36.9165 37.0675 37.3015 37.0972 37.5919 36.9036C37.9994 36.6319 38.0461 36.0509 37.6872 35.7176L32.3239 30.7374L32.3192 30.7331L32.9998 30.0001L33.6754 29.2631L33.6801 29.2675L38.4251 33.617C38.675 33.8461 39.0666 33.8159 39.2783 33.5512C39.473 33.3078 39.443 32.9545 39.2101 32.7475L38.3353 31.9699L31.7024 26.074C31.5818 25.9668 31.4371 25.8904 31.2806 25.8513L30.4749 25.6498C30.2433 25.5919 29.9986 25.6188 29.7851 25.7256L28.4111 26.4126C27.4503 26.893 26.2899 26.7047 25.5303 25.9451C24.4459 24.8607 24.5868 23.064 25.8271 22.162L26.7685 21.4773ZM21.2926 33.2932L19.2926 35.2932L18.2926 36.2932C18.1308 36.4549 17.8685 36.4549 17.7068 36.2932C17.545 36.1314 17.545 35.8691 17.7068 35.7074L18.7059 34.7083L18.7068 34.7074L20.7068 32.7074L21.7068 31.7074C21.8685 31.5456 22.1308 31.5456 22.2926 31.7074C22.4543 31.8691 22.4543 32.1314 22.2926 32.2932L21.2926 33.2932ZM20.7068 37.2932C20.5452 37.1316 20.545 36.8697 20.7062 36.7079L20.7068 36.7074L22.7068 34.7074C22.8685 34.5456 23.1308 34.5456 23.2926 34.7074C23.4542 34.869 23.4543 35.1309 23.293 35.2927L23.2926 35.2932L22.2926 36.2932L22.2916 36.2941L21.2926 37.2932C21.1308 37.4549 20.8685 37.4549 20.7068 37.2932ZM19.2926 31.2932L17.2926 33.2932C17.1308 33.4549 16.8685 33.4549 16.7068 33.2932C16.545 33.1314 16.545 32.8691 16.7068 32.7074L18.7068 30.7074C18.8685 30.5456 19.1308 30.5456 19.2926 30.7074C19.4543 30.8691 19.4543 31.1312 19.2927 31.293L19.2926 31.2932ZM23.7068 38.2932C23.5451 38.1315 23.545 37.8695 23.7064 37.7077L23.7068 37.7074L24.7068 36.7074C24.8685 36.5456 25.1308 36.5456 25.2926 36.7074C25.4543 36.8691 25.4543 37.1314 25.2926 37.2932L24.2926 38.2932C24.1308 38.4549 23.8685 38.4549 23.7068 38.2932ZM33.0312 24.5792L38.8854 29.783L42.7011 25.1194C42.9998 24.7542 43.0027 24.2299 42.708 23.8614L40.6153 21.2456C40.3474 20.9107 39.8958 20.7839 39.4927 20.9305L35.9963 22.2019C35.3602 22.4332 34.6645 22.4426 34.0224 22.2286L31.1599 21.2744C30.8535 21.1723 30.5166 21.2244 30.2555 21.4144L27.0034 23.7795C26.7571 23.9586 26.7291 24.3155 26.9445 24.5309C27.0954 24.6817 27.3258 24.7191 27.5167 24.6237L28.8907 23.9367C29.5312 23.6164 30.2652 23.5359 30.96 23.7096L31.7657 23.911C32.2352 24.0284 32.6694 24.2576 33.0312 24.5792Z" fill="#0065DD"/>
</svg>
